<?xml version="1.0" encoding="utf-8"?>
<!-- Generator: Adobe Illustrator 26.3.1, SVG Export Plug-In . SVG Version: 6.00 Build 0)  -->
<svg version="1.1" id="Layer_1" xmlns="http://www.w3.org/2000/svg" xmlns:xlink="http://www.w3.org/1999/xlink" x="0px" y="0px"
	 viewBox="0 0 409.2 409" style="enable-background:new 0 0 409.2 409;" xml:space="preserve">
<style type="text/css">
	.st0{fill:#F1E300;}
	.st1{fill:#2923FF;}
</style>
<polygon class="st0" points="120.5,84.1 31.7,211.9 148.9,369.3 288.1,353.1 377.1,222 "/>
<g id="Layer_2_00000037658741622244909140000000481889828448058537_">
	<g id="OBJECTS">
		<path class="st1" d="M409.1,201.2c-0.2-6.6-2.7-11.2-9-13.5c-0.9-0.3-1.7-0.7-2.6-1.1c-22.2-11.1-35.7-28.1-36.5-53.6
			c-0.3-8.5-5.5-13.8-14.1-13.9c-6.5-0.1-12.9,1.1-19.5,0.2c-23.9-3.3-41.4-15.7-53.1-36.4c-4.8-8.4-7.2-17.7-8.4-27.3
			c-1.1-9.4-10.8-14.4-17.9-11.2c-1.2,0.5-2.5,0.8-3.8,1.1c-13.2,3.8-27.4,2.1-39.4-4.7c-13-7.1-23.3-18.1-29.4-31.6
			c-3.6-7.7-7.7-9.9-16.2-9c-2.8,0.4-5.5,0.9-8.2,1.7c-32.1,8.8-59.8,25.3-84,47.9C52,63.8,39.2,80,28.9,97.7
			c-10.9,18.5-19,38.4-24.1,59.3c-2.5,9.9-3.7,20-4.8,30.1v3.2c1,0.2,0.8,0.9,0.7,1.6v4.8l0,0c0,0.5,0,1.1,0,1.6l0,0
			c0.1,0.7,0.1,1.3-0.7,1.6v7.2c1.1,1.6,1.3,3.2,0,4.8v4c1,0.5,1.2,1.1,0,1.6v3.2c0.8,4,0.5,8.1,1,12.2c1.9,14.3,5.4,28.4,10.5,42
			c10,27.3,25.7,52.1,46,72.9c11.8,12.1,25,22.7,39.4,31.5c21.2,13.1,44.6,22.3,69,27c7.2,1.4,14.4,1.5,21.6,2.6h3.2
			c0.4-1.4,1.5-0.6,2.3-0.6l0,0h2.4l0,0c0.9-0.1,1.8-0.3,2.4,0.7h12.8c0.6-1,1.5-0.8,2.4-0.7h2.4c0.7-0.1,1.4-0.3,1.6,0.7h2.4
			c4.3-0.8,8.7-0.5,13-1c21.2-2.7,41.7-8.9,60.8-18.4c35.2-17.3,63.5-42.4,84.5-75.6C399.5,279.5,410.3,242.1,409.1,201.2z
			 M144.5,120.9c13.2,0,23.9,10.8,23.8,24c0,13.2-10.8,23.9-24,23.8c-13.2,0-23.9-10.8-23.8-24c0,0,0,0,0,0
			C120.7,131.6,131.3,121,144.5,120.9L144.5,120.9z M84.1,217.5c-6.7,0-12.1-5.4-12.1-12c0,0,0-0.1,0-0.1
			c0.2-6.5,5.6-11.7,12.1-11.8c6.5,0.1,11.8,5.5,11.8,12c0.1,6.5-5.2,11.8-11.7,11.9C84.2,217.5,84.1,217.5,84.1,217.5z
			 M132.4,312.4c-19.7-0.1-36.1-16.6-35.8-36.1s16.5-35.7,35.9-35.6c19.7,0.1,36.1,16.6,35.8,36.1S151.9,312.5,132.4,312.4
			L132.4,312.4z M240.5,336.4c-13.2,0.2-24-10.4-24.2-23.6c-0.2-13.2,10.4-24,23.6-24.2c13.2-0.2,24,10.4,24.2,23.6c0,0,0,0.1,0,0.1
			C264.1,325.4,253.6,336.1,240.5,336.4z M252.2,240.6c-19.7,0-36.1-16.6-35.9-36.1c0.3-19.7,16.2-35.5,35.9-35.7
			c19.6,0,36.1,16.6,35.9,36.1C287.8,224.6,271.9,240.4,252.2,240.6z M323.5,265.4c-6.5,0-11.9-5.2-12.1-11.7
			c0-6.7,5.4-12.1,12.1-12.2c6.5,0.1,11.7,5.5,11.7,12c0.1,6.5-5.1,11.8-11.6,11.9C323.6,265.4,323.6,265.4,323.5,265.4L323.5,265.4
			z"/>
		<path class="st1" d="M0,207.1v4.8C0.6,210.3,0.6,208.6,0,207.1z"/>
		<path class="st1" d="M0,207.1c0.6,1.5,0.6,3.3,0,4.8C1.3,210.3,1.1,208.7,0,207.1z"/>
		<path class="st1" d="M190.8,409h2.4c0-0.1,0-0.3-0.1-0.4C192.3,408.7,191.4,408.4,190.8,409z"/>
		<path class="st1" d="M193.1,408.6v-0.3l0,0c-0.8,0.1-1.9-0.7-2.3,0.6C191.4,408.4,192.3,408.7,193.1,408.6z"/>
		<path class="st1" d="M195.4,408.6h-2c0,0,0,0.1,0,0.2c-0.1,0.2-0.2,0.2-0.3,0.2h2.4c0-0.1,0-0.3,0-0.4L195.4,408.6z"/>
		<path class="st1" d="M193.4,408.6h2.1c0-0.1,0-0.2,0-0.3l0,0h-2.4l0,0C193.3,408.4,193.4,408.5,193.4,408.6z"/>
		<path class="st1" d="M193.4,408.8c0,0,0-0.1,0-0.2h-0.1h-0.2c0,0.1,0,0.3,0.1,0.4S193.3,408.9,193.4,408.8z"/>
		<path class="st1" d="M193.3,408.6h0.1c0-0.1-0.1-0.2-0.3-0.2v0.3L193.3,408.6z"/>
		<path class="st1" d="M195.8,408.6c0,0,0,0.1,0,0.1c-0.1,0.2-0.2,0.2-0.3,0.2h2.4C197.3,408.4,196.6,408.6,195.8,408.6z"/>
		<path class="st1" d="M195.5,408.3L195.5,408.3c0.2,0.1,0.3,0.2,0.3,0.3c0.7,0,1.5-0.2,2.1,0.4C197.3,408,196.4,408.2,195.5,408.3z
			"/>
		<path class="st1" d="M195.8,408.8c0,0,0-0.1,0-0.1h-0.3c0,0.1,0,0.3,0,0.4S195.7,408.9,195.8,408.8z"/>
		<path class="st1" d="M195.8,408.6c0-0.1-0.1-0.2-0.3-0.3c0,0.1,0,0.2,0,0.3L195.8,408.6z"/>
		<path class="st1" d="M210.7,409h2.4c0-0.1,0-0.3,0-0.4C212.3,408.7,211.4,408.3,210.7,409z"/>
		<path class="st1" d="M213.1,408.6c0-0.1,0-0.2,0-0.3c-0.9-0.1-1.8-0.3-2.4,0.7C211.4,408.3,212.3,408.7,213.1,408.6z"/>
		<path class="st1" d="M215.2,408.6h-1.8c0,0.1,0,0.1,0,0.2c-0.1,0.1-0.2,0.2-0.2,0.2h2.4c0-0.1,0-0.3,0-0.4L215.2,408.6z"/>
		<path class="st1" d="M213.4,408.6h2.1c0-0.1,0-0.2,0-0.3h-2.4C213.2,408.4,213.3,408.5,213.4,408.6z"/>
		<path class="st1" d="M213.4,408.8c0-0.1,0-0.1,0-0.2h-0.2c0,0.1,0,0.3,0,0.4S213.3,408.9,213.4,408.8z"/>
		<path class="st1" d="M213.1,408.6h0.2c0-0.1-0.1-0.2-0.2-0.3l0,0C213.1,408.4,213.1,408.5,213.1,408.6L213.1,408.6z"/>
		<path class="st1" d="M0,190.3v1.6h0.4C0.4,191.4,0.5,190.8,0,190.3z"/>
		<path class="st1" d="M0.4,191.9h0.3c0.1-0.7,0.4-1.4-0.7-1.6C0.5,190.8,0.4,191.4,0.4,191.9z"/>
		<path class="st1" d="M0.4,192.2c-0.1,0.1-0.3,0-0.4-0.2v1.6c0.1,0,0.3,0,0.4,0V192.2z"/>
		<path class="st1" d="M0.4,192.2v1.4c0.1,0,0.2,0,0.3,0v-1.6C0.6,192,0.5,192.1,0.4,192.2z"/>
		<path class="st1" d="M0.4,192.2L0.4,192.2c0-0.1,0-0.2,0-0.2H0C0.1,192.1,0.3,192.2,0.4,192.2z"/>
		<path class="st1" d="M0.4,192.1L0.4,192.1c0.1,0,0.2-0.1,0.3-0.3H0.4C0.4,192,0.4,192.1,0.4,192.1z"/>
		<path class="st1" d="M0.4,193.8c-0.1,0.1-0.3,0-0.4-0.2v1.6c0.1,0,0.3,0,0.4,0V193.8z"/>
		<path class="st1" d="M0.4,193.8v1.3h0.3v-1.6C0.6,193.6,0.5,193.7,0.4,193.8z"/>
		<path class="st1" d="M0.4,193.8v-0.2c-0.1,0-0.3,0-0.4,0C0.1,193.8,0.3,193.8,0.4,193.8z"/>
		<path class="st1" d="M0.4,193.6v0.1c0.1-0.1,0.2-0.1,0.3-0.3c-0.1,0-0.2,0-0.3,0L0.4,193.6z"/>
		<path class="st1" d="M0.4,196.6v-1.2c-0.1,0.1-0.3,0-0.4-0.2v1.6h0.4V196.6z"/>
		<path class="st1" d="M0.4,195.4v1.3h0.3v-1.6C0.6,195.2,0.5,195.3,0.4,195.4z"/>
		<path class="st1" d="M0.4,195.4v-0.2l0,0c-0.1,0-0.3,0-0.4,0C0.1,195.3,0.3,195.4,0.4,195.4z"/>
		<path class="st1" d="M0.4,195.1v0.2c0.1-0.1,0.2-0.1,0.3-0.3L0.4,195.1L0.4,195.1z"/>
		<path class="st1" d="M0.4,198.1V197c-0.1,0.1-0.3,0-0.4-0.2v1.6h0.4V198.1z"/>
		<path class="st1" d="M0.4,197v1.3h0.3l0,0c0-0.5,0-1.1,0-1.6l0,0C0.6,196.9,0.5,196.9,0.4,197z"/>
		<path class="st1" d="M0.4,197v-0.3H0C0.1,196.9,0.3,197,0.4,197z"/>
		<path class="st1" d="M0.4,197c0.1-0.1,0.2-0.2,0.3-0.3H0.4V197z"/>
		<path class="st1" d="M0.4,198.6c-0.1,0-0.3,0-0.4-0.2v1.6C0.3,199.5,0.5,199,0.4,198.6z"/>
		<path class="st1" d="M0.7,198.3L0.7,198.3c-0.1,0.1-0.1,0.2-0.3,0.3c0.1,0.5-0.1,1-0.4,1.3C0.8,199.6,0.8,199,0.7,198.3z"/>
		<path class="st1" d="M0.4,198.6v-0.3H0C0.1,198.5,0.3,198.6,0.4,198.6z"/>
		<path class="st1" d="M0.4,198.6c0.1-0.1,0.2-0.2,0.3-0.3H0.4V198.6z"/>
		<path class="st1" d="M0,215.9v1.6c0.4-0.3,0.5-1,0.2-1.4C0.1,216,0.1,215.9,0,215.9z"/>
		<path class="st1" d="M0,215.9c0.4,0.3,0.5,1,0.2,1.4c-0.1,0.1-0.1,0.1-0.2,0.2C1.2,216.9,1,216.4,0,215.9z"/>
		<path class="st1" d="M215.8,408.6c0,0.1,0,0.1,0,0.2c-0.1,0.1-0.2,0.2-0.3,0.2h1.6C216.8,408.7,216.3,408.5,215.8,408.6z"/>
		<path class="st1" d="M215.5,408.3L215.5,408.3c0.1,0.1,0.2,0.2,0.2,0.3c0.5-0.1,1,0.1,1.3,0.4C216.9,408,216.2,408.2,215.5,408.3z
			"/>
		<path class="st1" d="M215.8,408.8c0-0.1,0-0.1,0-0.2h-0.2c0,0.1,0,0.3,0,0.4S215.7,408.9,215.8,408.8z"/>
		<path class="st1" d="M215.8,408.6c0-0.1-0.1-0.2-0.2-0.3l0,0c0,0.1,0,0.2,0,0.3H215.8z"/>
	</g>
</g>
</svg>
