<svg id="ic-furniture-light" xmlns="http://www.w3.org/2000/svg" width="20" height="20" viewBox="0 0 20 20">
  <rect id="Rectangle_264" data-name="Rectangle 264" width="20" height="20" fill="none"/>
  <g id="ic-furniture-light-2" data-name="ic-furniture-light" transform="translate(1.667 2.5)">
    <path id="Path_212" data-name="Path 212" d="M8.5,9h3.667a6.5,6.5,0,0,1,6.5,6.5h0a.167.167,0,0,1-.167.167H2.167A.167.167,0,0,1,2,15.5H2A6.5,6.5,0,0,1,8.5,9Z" transform="translate(-2 -4)" fill="none" stroke="#ff2bbe" stroke-linecap="round" stroke-linejoin="round" stroke-width="1.5"/>
    <line id="Line_216" data-name="Line 216" y2="5" transform="translate(8.333)" fill="none" stroke="#ff2bbe" stroke-linecap="round" stroke-linejoin="round" stroke-width="1.5"/>
    <path id="Path_213" data-name="Path 213" d="M9,17v.942a2.4,2.4,0,0,0,2.392,2.392h0a2.392,2.392,0,0,0,2.392-2.392V17" transform="translate(-3.167 -5.333)" fill="none" stroke="#ff2bbe" stroke-linecap="round" stroke-linejoin="round" stroke-width="1.5"/>
  </g>
</svg>
