<svg id="logo" xmlns="http://www.w3.org/2000/svg" xmlns:xlink="http://www.w3.org/1999/xlink" width="178.531" height="40" viewBox="0 0 178.531 40">
  <defs>
    <clipPath id="clip-path">
      <rect id="Rectangle_2" data-name="Rectangle 2" width="178.531" height="40" fill="none"/>
    </clipPath>
  </defs>
  <g id="Group_1" data-name="Group 1" clip-path="url(#clip-path)">
    <path id="Path_1" data-name="Path 1" d="M629.326,227.966v3.074a14.587,14.587,0,0,0,2.166-1.246v-8.08h.867V227.1h2.074l.092-.111V223.2a.429.429,0,0,1,.005-.052h.856a.417.417,0,0,1,.005.052v2.619a15.022,15.022,0,0,0,1.743-3.538,6.935,6.935,0,0,1-6.022-6.013h-1.787V227.1h1.3v.867Z" transform="translate(-589.663 -202.638)" fill="#2900ff"/>
    <path id="Path_2" data-name="Path 2" d="M562.1,281.6l.881,1.183h2.49V275.7a7.38,7.38,0,0,1-1.215,1.364A4.159,4.159,0,0,1,562.1,281.6" transform="translate(-526.672 -258.323)" fill="#2900ff"/>
    <path id="Path_3" data-name="Path 3" d="M588.154,401.882H586.31l1.844,2.477Z" transform="translate(-549.358 -376.553)" fill="#2900ff"/>
    <rect id="Rectangle_1" data-name="Rectangle 1" width="1.733" height="0.867" transform="translate(39.663 11.897)" fill="#2900ff"/>
    <path id="Path_4" data-name="Path 4" d="M533.4,471.893h0Z" transform="translate(-499.787 -442.152)" fill="#2900ff"/>
    <path id="Path_5" data-name="Path 5" d="M313.327,23.31a4.146,4.146,0,0,1-2.3-3.725,4.063,4.063,0,0,1,7.757-1.751,6.511,6.511,0,0,0,1.515-2.3V11.9h-.433v-.431s0,0,0,0,0,0,0,0v-.429h.432v-.892h.867v.892H322.9v-.892h.864l0,.459v.433h.433v.431s0,0,0,0,0,0,0,0V11.9h-.432v.867a6.066,6.066,0,0,0,5.466,6.036,14.963,14.963,0,0,0,.53-3.95A14.663,14.663,0,1,0,309.48,28.607Z" transform="translate(-281.505)" fill="#2900ff"/>
    <path id="Path_6" data-name="Path 6" d="M677.448,401.882v1.178a14.931,14.931,0,0,0,1.293-1.178Z" transform="translate(-634.752 -376.554)" fill="#2900ff"/>
    <path id="Path_7" data-name="Path 7" d="M0,37.875V31.951a18.5,18.5,0,0,0,4.421.459c2.128,0,2.962-1.627,2.962-3.629V0h6.549V28.781c0,5.3-2.544,9.8-9.511,9.8A18.113,18.113,0,0,1,0,37.875" fill="#2900ff"/>
    <path id="Path_8" data-name="Path 8" d="M866.867,20.48c0,3.921-2.545,8.259-9.3,8.259H845.094V0h11.637c5.256,0,8.634,3.17,8.634,7.425,0,2-.751,5.005-4.046,5.965,3.8.542,5.548,3.8,5.548,7.091m-10.6-14.766h-4.631V11.22h4.589a2.479,2.479,0,0,0,2.586-2.753,2.461,2.461,0,0,0-2.544-2.753m.5,17.311a3.224,3.224,0,1,0,0-6.424h-5.131v6.424Z" transform="translate(-791.833)" fill="#2900ff"/>
    <path id="Path_9" data-name="Path 9" d="M1269.954,20.856h6.549c0,1.835,1.836,3.253,4.088,3.253,2.127,0,3.755-1.084,3.755-2.961,0-1.126-.626-2.169-3.171-3l-3.42-1.043c-6.34-1.71-7.55-5.589-7.55-8.3,0-5.173,4.422-8.8,10.137-8.8,5.506,0,9.718,3.295,9.718,8.885h-6.549a3.01,3.01,0,0,0-3.3-3.17,3.113,3.113,0,0,0-3.378,2.962c0,.584.167,1.877,2.837,2.628l3,.959c4.088,1.252,8.259,3.337,8.259,8.551,0,6.173-5.339,8.926-10.594,8.926-6.133,0-10.387-3.587-10.387-8.885" transform="translate(-1189.916)" fill="#2900ff"/>
    <path id="Path_10" data-name="Path 10" d="M1686.167,26.114h12.172V29.74h-16.1V0h3.928Z" transform="translate(-1576.217 0)" fill="#2900ff"/>
    <path id="Path_11" data-name="Path 11" d="M2028.61,0c8.461,0,13.425,6.475,13.425,14.935,0,8.417-4.964,14.806-13.425,14.806h-11.525V0Zm0,26.115c6.259,0,9.5-4.834,9.5-11.18s-3.237-11.309-9.5-11.309h-7.6V26.115Z" transform="translate(-1889.96)" fill="#2900ff"/>
    <path id="Path_12" data-name="Path 12" d="M2509.871,0h3.928V29.74H2510L2496.273,7.079V29.74h-3.928V0h3.885l13.641,22.575Z" transform="translate(-2335.268 0)" fill="#2900ff"/>
    <path id="Path_13" data-name="Path 13" d="M380.089,98.678a1.644,1.644,0,0,0-2.674,1.29,1.658,1.658,0,0,0,.033.331h9.1a1.951,1.951,0,0,0-2.535-1.2c0-.042.013-.082.013-.125a1.979,1.979,0,0,0-3.936-.3" transform="translate(-353.629 -90.88)" fill="#fff"/>
    <path id="Path_14" data-name="Path 14" d="M476,375.71a4.07,4.07,0,0,1-.581-.046l-3.265,11.979,3.721,4.345,3.958-4.345-3.464-11.952c-.122.011-.245.019-.37.019" transform="translate(-442.4 -351.988)" fill="#f4001e"/>
  </g>
</svg>
