<svg id="ic-actions-emultiple-edit" xmlns="http://www.w3.org/2000/svg" width="24" height="24" viewBox="0 0 24 24">
  <rect id="Rectangle_131" data-name="Rectangle 131" width="24" height="24" fill="none"/>
  <g id="ic-actions-emultiple-edit-2" data-name="ic-actions-emultiple-edit" transform="translate(0.102 -0.077)">
    <path id="Path_15" data-name="Path 15" d="M22.714,13.115v6.812a2.39,2.39,0,0,1-2.39,2.39H8.11a2.39,2.39,0,0,1-2.39-2.39V4.39A2.39,2.39,0,0,1,8.11,2h7.051" transform="translate(-2.774)" fill="none" stroke="#2132f5" stroke-linecap="round" stroke-linejoin="bevel" stroke-width="1.5"/>
    <path id="Path_17" data-name="Path 17" d="M19.3,2.25a1,1,0,0,0-1.42,0l-6,6h0l-.1,3a.21.21,0,0,0,.23.22l3-.1h0l6-6A1,1,0,0,0,21,4Z" fill="none" stroke="#2132f5" stroke-linecap="round" stroke-linejoin="round" stroke-width="1.5"/>
  </g>
</svg>
