<svg xmlns="http://www.w3.org/2000/svg" xmlns:xlink="http://www.w3.org/1999/xlink" width="25.748" height="27.752" viewBox="0 0 25.748 27.752">
  <defs>
    <clipPath id="clip-path">
      <rect id="Rectangle_520" data-name="Rectangle 520" width="25.748" height="27.752" transform="translate(0 0)" fill="none"/>
    </clipPath>
  </defs>
  <g id="copy" transform="translate(0 0)">
    <g id="Group_304" data-name="Group 304" clip-path="url(#clip-path)">
      <path id="Path_5298" data-name="Path 5298" d="M16.75,22v3a2.006,2.006,0,0,1-2,2h-12a2,2,0,0,1-2-2V9a1.993,1.993,0,0,1,2-2h3V20a2,2,0,0,0,2,2Z" fill="none" stroke="#2132f5" stroke-linecap="round" stroke-linejoin="bevel" stroke-width="1.5"/>
      <path id="Path_5299" data-name="Path 5299" d="M21.75,8.922V20a2.006,2.006,0,0,1-2,2h-12a2,2,0,0,1-2-2V4a1.993,1.993,0,0,1,2-2h8.86a.992.992,0,0,1,.81.43l4.15,5.92A.944.944,0,0,1,21.75,8.922Z" fill="none" stroke="#2132f5" stroke-linecap="round" stroke-linejoin="bevel" stroke-width="1.5"/>
    </g>
  </g>
</svg>
