<svg xmlns="http://www.w3.org/2000/svg" width="54.883" height="42.687" viewBox="0 0 54.883 42.687">
  <path id="_8666146_cc_paypal_icon" data-name="8666146_cc_paypal_icon" d="M17.751,53.553a2.044,2.044,0,0,1-2.1,2.049,1.377,1.377,0,0,1-1.525-1.429,2.066,2.066,0,0,1,2.068-2.1A1.431,1.431,0,0,1,17.751,53.553ZM7.67,48.932H7.222a.3.3,0,0,0-.3.257l-.41,2.544.781-.029c1.048,0,1.858-.143,2.049-1.353C9.557,49.075,8.747,48.932,7.67,48.932Zm27.061,0H34.3a.28.28,0,0,0-.3.257l-.4,2.544.762-.029c1.239,0,2.1-.286,2.1-1.715-.01-1.01-.915-1.058-1.725-1.058ZM54.883,36.574v33.54a4.575,4.575,0,0,1-4.574,4.574H4.574A4.575,4.575,0,0,1,0,70.113V36.574A4.575,4.575,0,0,1,4.574,32H50.31A4.575,4.575,0,0,1,54.883,36.574Zm-42.658,12.9c0-2-1.544-2.668-3.306-2.668H5.107a.5.5,0,0,0-.5.448L3.049,56.983a.328.328,0,0,0,.3.381h1.81a.608.608,0,0,0,.524-.543l.429-2.535c.1-.686,1.258-.448,1.715-.448a4.03,4.03,0,0,0,4.393-4.364Zm8.023.838h-1.81c-.362,0-.381.524-.4.781a2.433,2.433,0,0,0-2.258-.953,4.252,4.252,0,0,0-4.116,4.307,2.844,2.844,0,0,0,3.02,3.068,3.711,3.711,0,0,0,2.525-1.134,2.546,2.546,0,0,0-.1.591c0,.219.1.381.3.381h1.639c.257,0,.476-.276.524-.543l.972-6.127a.324.324,0,0,0-.3-.372Zm3.859,9.328,6.07-8.823a.2.2,0,0,0,.048-.162.34.34,0,0,0-.3-.333H28.09a.539.539,0,0,0-.429.238l-2.525,3.716L24.088,50.7a.578.578,0,0,0-.524-.381H21.782a.34.34,0,0,0-.3.333c0,.114,1.858,5.412,2.02,5.917a24.617,24.617,0,0,0-1.953,3.011.307.307,0,0,0,.3.3h1.829a.561.561,0,0,0,.429-.248ZM39.285,49.475c0-2-1.544-2.668-3.306-2.668H32.2a.525.525,0,0,0-.524.448l-1.544,9.719a.34.34,0,0,0,.3.381h1.953a.408.408,0,0,0,.381-.3l.429-2.763c.1-.686,1.258-.448,1.715-.448a4.024,4.024,0,0,0,4.374-4.364Zm8.023.838H45.5c-.362,0-.381.524-.41.781a2.389,2.389,0,0,0-2.258-.953,4.252,4.252,0,0,0-4.116,4.307,2.844,2.844,0,0,0,3.02,3.068,3.6,3.6,0,0,0,2.525-1.134,4.235,4.235,0,0,0-.1.591c0,.219.1.381.3.381h1.648c.257,0,.476-.276.524-.543l.972-6.127a.324.324,0,0,0-.3-.372Zm4.526-3.173a.32.32,0,0,0-.3-.333H49.767a.316.316,0,0,0-.3.257l-1.544,9.909-.029.048a.338.338,0,0,0,.333.333H49.8a.59.59,0,0,0,.5-.543l1.544-9.643v-.029Zm-8.576,4.936a2.06,2.06,0,0,0-2.068,2.1A1.4,1.4,0,0,0,42.735,55.6,2.032,2.032,0,0,0,44.8,53.553,1.418,1.418,0,0,0,43.259,52.076Z" transform="translate(0 -32)"/>
</svg>
